<svg width="1200" height="630" viewBox="0 0 1200 630" fill="none" xmlns="http://www.w3.org/2000/svg">
  <rect width="1200" height="630" rx="24" fill="#EEF2FF"/>
  <rect x="48" y="48" width="1104" height="534" rx="20" fill="white"/>
  <rect x="96" y="112" width="500" height="56" rx="12" fill="#4F46E5" fill-opacity="0.12"/>
  <rect x="96" y="190" width="760" height="18" rx="9" fill="#CBD5E1"/>
  <rect x="96" y="224" width="680" height="18" rx="9" fill="#CBD5E1"/>
  <rect x="96" y="258" width="720" height="18" rx="9" fill="#CBD5E1"/>
  <rect x="96" y="320" width="760" height="190" rx="16" fill="#F8FAFC" stroke="#E2E8F0" stroke-width="2"/>
  <rect x="96" y="74" width="180" height="22" rx="11" fill="#4F46E5"/>
  <text x="114" y="90" fill="white" font-size="12" font-family="Arial, sans-serif">MINI GAME</text>
  <text x="96" y="148" fill="#3730A3" font-size="28" font-family="Arial, sans-serif" font-weight="700">Speed Typing Race</text>
  <text x="96" y="352" fill="#334155" font-size="20" font-family="Arial, sans-serif" font-weight="700">Type the paragraph as fast as you can</text>
  <rect x="904" y="120" width="200" height="200" rx="24" fill="#4F46E5"/>
  <rect x="934" y="170" width="140" height="90" rx="12" fill="white"/>
  <circle cx="964" cy="214" r="10" fill="#4F46E5"/>
  <circle cx="1004" cy="214" r="10" fill="#4F46E5"/>
  <circle cx="1044" cy="214" r="10" fill="#4F46E5"/>
  <rect x="952" y="240" width="104" height="8" rx="4" fill="#4F46E5"/>
  <text x="896" y="370" fill="#334155" font-size="18" font-family="Arial, sans-serif">Accuracy + WPM</text>
</svg>
